solid OpenSCAD_Model
  facet normal 0 0 -1
    outer loop
      vertex 7.5 -9.8 0
      vertex -7.5 -9.8 0
      vertex 7.5 9.8 0
    endloop
  endfacet
  facet normal 0 0 -1
    outer loop
      vertex 15 -14 0
      vertex -7.5 -9.8 0
      vertex 7.5 -9.8 0
    endloop
  endfacet
  facet normal 0 -0 -1
    outer loop
      vertex -7.5 -9.8 0
      vertex 15 -14 0
      vertex -15 -14 0
    endloop
  endfacet
  facet normal 0 0 -1
    outer loop
      vertex -7.5 9.8 0
      vertex 7.5 9.8 0
      vertex -7.5 -9.8 0
    endloop
  endfacet
  facet normal 0 0 -1
    outer loop
      vertex -7.5 9.8 0
      vertex 15 14 0
      vertex 7.5 9.8 0
    endloop
  endfacet
  facet normal -0 0 -1
    outer loop
      vertex 15 14 0
      vertex -7.5 9.8 0
      vertex -15 14 0
    endloop
  endfacet
  facet normal 0 -1 0
    outer loop
      vertex -15 -14 0
      vertex 15 -14 15
      vertex -15 -14 15
    endloop
  endfacet
  facet normal 0 -1 -0
    outer loop
      vertex 15 -14 15
      vertex -15 -14 0
      vertex 15 -14 0
    endloop
  endfacet
  facet normal 0.488603 0.872506 -0
    outer loop
      vertex 15 -14 0
      vertex 7.5 -9.8 15
      vertex 15 -14 15
    endloop
  endfacet
  facet normal 0.488603 0.872506 0
    outer loop
      vertex 7.5 -9.8 15
      vertex 15 -14 0
      vertex 7.5 -9.8 0
    endloop
  endfacet
  facet normal 0 0 1
    outer loop
      vertex 7.5 9.8 15
      vertex -7.5 9.8 15
      vertex 7.5 -9.8 15
    endloop
  endfacet
  facet normal 0 0 1
    outer loop
      vertex 15 14 15
      vertex -7.5 9.8 15
      vertex 7.5 9.8 15
    endloop
  endfacet
  facet normal 0 -0 1
    outer loop
      vertex -7.5 9.8 15
      vertex 15 14 15
      vertex -15 14 15
    endloop
  endfacet
  facet normal 0 0 1
    outer loop
      vertex -7.5 -9.8 15
      vertex 7.5 -9.8 15
      vertex -7.5 9.8 15
    endloop
  endfacet
  facet normal -0 0 1
    outer loop
      vertex -7.5 -9.8 15
      vertex 15 -14 15
      vertex 7.5 -9.8 15
    endloop
  endfacet
  facet normal 0 0 1
    outer loop
      vertex 15 -14 15
      vertex -7.5 -9.8 15
      vertex -15 -14 15
    endloop
  endfacet
  facet normal -0.488603 0.872506 0
    outer loop
      vertex -7.5 -9.8 0
      vertex -15 -14 15
      vertex -7.5 -9.8 15
    endloop
  endfacet
  facet normal -0.488603 0.872506 0
    outer loop
      vertex -15 -14 15
      vertex -7.5 -9.8 0
      vertex -15 -14 0
    endloop
  endfacet
  facet normal -0.488603 -0.872506 0
    outer loop
      vertex -15 14 0
      vertex -7.5 9.8 15
      vertex -15 14 15
    endloop
  endfacet
  facet normal -0.488603 -0.872506 -0
    outer loop
      vertex -7.5 9.8 15
      vertex -15 14 0
      vertex -7.5 9.8 0
    endloop
  endfacet
  facet normal 0.488603 -0.872506 0
    outer loop
      vertex 7.5 9.8 0
      vertex 15 14 15
      vertex 7.5 9.8 15
    endloop
  endfacet
  facet normal 0.488603 -0.872506 0
    outer loop
      vertex 15 14 15
      vertex 7.5 9.8 0
      vertex 15 14 0
    endloop
  endfacet
  facet normal 0 1 -0
    outer loop
      vertex 15 14 0
      vertex -15 14 15
      vertex 15 14 15
    endloop
  endfacet
  facet normal 0 1 0
    outer loop
      vertex -15 14 15
      vertex 15 14 0
      vertex -15 14 0
    endloop
  endfacet
  facet normal -1 0 0
    outer loop
      vertex -7.5 -9.8 0
      vertex -7.5 9.8 15
      vertex -7.5 9.8 0
    endloop
  endfacet
  facet normal -1 -0 0
    outer loop
      vertex -7.5 9.8 15
      vertex -7.5 -9.8 0
      vertex -7.5 -9.8 15
    endloop
  endfacet
  facet normal 1 -0 0
    outer loop
      vertex 7.5 -9.8 15
      vertex 7.5 9.8 0
      vertex 7.5 9.8 15
    endloop
  endfacet
  facet normal 1 0 0
    outer loop
      vertex 7.5 9.8 0
      vertex 7.5 -9.8 15
      vertex 7.5 -9.8 0
    endloop
  endfacet
endsolid OpenSCAD_Model
