solid OpenSCAD_Model
  facet normal 1 -0 0
    outer loop
      vertex -17 -2.25 37.5
      vertex -17 -1.55 -37.5
      vertex -17 -1.55 37.5
    endloop
  endfacet
  facet normal 1 0 0
    outer loop
      vertex -17 -1.55 -37.5
      vertex -17 -2.25 37.5
      vertex -17 -2.25 -37.5
    endloop
  endfacet
  facet normal 1 -0 0
    outer loop
      vertex -17 -5.55 37.5
      vertex -17 -3.25 -37.5
      vertex -17 -3.25 37.5
    endloop
  endfacet
  facet normal 1 0 0
    outer loop
      vertex -17 -3.25 -37.5
      vertex -17 -5.55 37.5
      vertex -17 -5.55 -37.5
    endloop
  endfacet
  facet normal -1 0 0
    outer loop
      vertex 17 -5.55 -37.5
      vertex 17 -3.25 37.5
      vertex 17 -3.25 -37.5
    endloop
  endfacet
  facet normal -1 -0 0
    outer loop
      vertex 17 -3.25 37.5
      vertex 17 -5.55 -37.5
      vertex 17 -5.55 37.5
    endloop
  endfacet
  facet normal -1 0 0
    outer loop
      vertex 17 -2.25 -37.5
      vertex 17 -1.55 37.5
      vertex 17 -1.55 -37.5
    endloop
  endfacet
  facet normal -1 -0 0
    outer loop
      vertex 17 -1.55 37.5
      vertex 17 -2.25 -37.5
      vertex 17 -2.25 37.5
    endloop
  endfacet
  facet normal 0 0 1
    outer loop
      vertex -17 -8.75 37.5
      vertex -18 -8.25 37.5
      vertex -17 -11.8 37.5
    endloop
  endfacet
  facet normal 0 0 1
    outer loop
      vertex -18 -2.75 37.5
      vertex -17 -5.55 37.5
      vertex -17 -3.25 37.5
    endloop
  endfacet
  facet normal 0 0 1
    outer loop
      vertex -18 -8.25 37.5
      vertex -17 -5.55 37.5
      vertex -18 -2.75 37.5
    endloop
  endfacet
  facet normal 0 0 1
    outer loop
      vertex -17 -5.55 37.5
      vertex -18 -8.25 37.5
      vertex -17 -7.05 37.5
    endloop
  endfacet
  facet normal 0 0 1
    outer loop
      vertex -17 -7.05 37.5
      vertex -18 -8.25 37.5
      vertex -17 -7.75 37.5
    endloop
  endfacet
  facet normal 0 0 1
    outer loop
      vertex -18 2.75 37.5
      vertex -17 -0.0500002 37.5
      vertex -17 2.25 37.5
    endloop
  endfacet
  facet normal 0 0 1
    outer loop
      vertex -18 -2.75 37.5
      vertex -17 -0.0500002 37.5
      vertex -18 2.75 37.5
    endloop
  endfacet
  facet normal 0 0 1
    outer loop
      vertex -17 -0.0500002 37.5
      vertex -18 -2.75 37.5
      vertex -17 -1.55 37.5
    endloop
  endfacet
  facet normal 0 0 1
    outer loop
      vertex -17 -1.55 37.5
      vertex -18 -2.75 37.5
      vertex -17 -2.25 37.5
    endloop
  endfacet
  facet normal 0 0 1
    outer loop
      vertex -18 8.25 37.5
      vertex -17 5.45 37.5
      vertex -17 7.75 37.5
    endloop
  endfacet
  facet normal 0 0 1
    outer loop
      vertex -18 2.75 37.5
      vertex -17 5.45 37.5
      vertex -18 8.25 37.5
    endloop
  endfacet
  facet normal 0 0 1
    outer loop
      vertex -17 5.45 37.5
      vertex -18 2.75 37.5
      vertex -17 3.95 37.5
    endloop
  endfacet
  facet normal 0 0 1
    outer loop
      vertex -17 3.95 37.5
      vertex -18 2.75 37.5
      vertex -17 3.25 37.5
    endloop
  endfacet
  facet normal -0 0 1
    outer loop
      vertex -17 -5.55 37.5
      vertex 17 -7.05 37.5
      vertex 17 -5.55 37.5
    endloop
  endfacet
  facet normal 0 0 1
    outer loop
      vertex 17 -7.05 37.5
      vertex -17 -5.55 37.5
      vertex -17 -7.05 37.5
    endloop
  endfacet
  facet normal -0 0 1
    outer loop
      vertex -17 -0.0500002 37.5
      vertex 17 -1.55 37.5
      vertex 17 -0.0500002 37.5
    endloop
  endfacet
  facet normal 0 0 1
    outer loop
      vertex 17 -1.55 37.5
      vertex -17 -0.0500002 37.5
      vertex -17 -1.55 37.5
    endloop
  endfacet
  facet normal -0 0 1
    outer loop
      vertex -17 5.45 37.5
      vertex 17 3.95 37.5
      vertex 17 5.45 37.5
    endloop
  endfacet
  facet normal 0 0 1
    outer loop
      vertex 17 3.95 37.5
      vertex -17 5.45 37.5
      vertex -17 3.95 37.5
    endloop
  endfacet
  facet normal 0 0 1
    outer loop
      vertex 17 -5.55 37.5
      vertex 18 -2.75 37.5
      vertex 17 -3.25 37.5
    endloop
  endfacet
  facet normal 0 0 1
    outer loop
      vertex 18 -2.75 37.5
      vertex 17 -5.55 37.5
      vertex 18 -8.25 37.5
    endloop
  endfacet
  facet normal -0 0 1
    outer loop
      vertex 17 -7.05 37.5
      vertex 18 -8.25 37.5
      vertex 17 -5.55 37.5
    endloop
  endfacet
  facet normal 0 0 1
    outer loop
      vertex 18 -8.25 37.5
      vertex 17 -7.05 37.5
      vertex 17 -7.75 37.5
    endloop
  endfacet
  facet normal 0 0 1
    outer loop
      vertex 17 -0.0500002 37.5
      vertex 18 2.75 37.5
      vertex 17 2.25 37.5
    endloop
  endfacet
  facet normal 0 0 1
    outer loop
      vertex 18 2.75 37.5
      vertex 17 -0.0500002 37.5
      vertex 18 -2.75 37.5
    endloop
  endfacet
  facet normal -0 0 1
    outer loop
      vertex 17 -1.55 37.5
      vertex 18 -2.75 37.5
      vertex 17 -0.0500002 37.5
    endloop
  endfacet
  facet normal 0 0 1
    outer loop
      vertex 18 -2.75 37.5
      vertex 17 -1.55 37.5
      vertex 17 -2.25 37.5
    endloop
  endfacet
  facet normal 0 0 1
    outer loop
      vertex 17 5.45 37.5
      vertex 18 8.25 37.5
      vertex 17 7.75 37.5
    endloop
  endfacet
  facet normal 0 0 1
    outer loop
      vertex 18 8.25 37.5
      vertex 17 5.45 37.5
      vertex 18 2.75 37.5
    endloop
  endfacet
  facet normal -0 0 1
    outer loop
      vertex 17 3.95 37.5
      vertex 18 2.75 37.5
      vertex 17 5.45 37.5
    endloop
  endfacet
  facet normal 0 0 1
    outer loop
      vertex 18 2.75 37.5
      vertex 17 3.95 37.5
      vertex 17 3.25 37.5
    endloop
  endfacet
  facet normal 0 0 1
    outer loop
      vertex 18 2.75 37.5
      vertex 20 10.95 37.5
      vertex 18 8.25 37.5
    endloop
  endfacet
  facet normal 0 0 1
    outer loop
      vertex 20 10.95 37.5
      vertex 17 10.2 37.5
      vertex 18 8.25 37.5
    endloop
  endfacet
  facet normal 0 0 1
    outer loop
      vertex 20 10.95 37.5
      vertex -17 10.2 37.5
      vertex 17 10.2 37.5
    endloop
  endfacet
  facet normal 0 0 1
    outer loop
      vertex -17 10.2 37.5
      vertex -18 8.25 37.5
      vertex -17 8.75 37.5
    endloop
  endfacet
  facet normal 0 0 1
    outer loop
      vertex -20 10.95 37.5
      vertex -18 2.75 37.5
      vertex -18 8.25 37.5
    endloop
  endfacet
  facet normal 0 0 1
    outer loop
      vertex -18 2.75 37.5
      vertex -20 10.95 37.5
      vertex -18 -2.75 37.5
    endloop
  endfacet
  facet normal 0 0 1
    outer loop
      vertex -20 -12.55 37.5
      vertex -18 -2.75 37.5
      vertex -20 10.95 37.5
    endloop
  endfacet
  facet normal 0 0 1
    outer loop
      vertex -17 10.2 37.5
      vertex -20 10.95 37.5
      vertex -18 8.25 37.5
    endloop
  endfacet
  facet normal -0 0 1
    outer loop
      vertex -20 10.95 37.5
      vertex -17 10.2 37.5
      vertex 20 10.95 37.5
    endloop
  endfacet
  facet normal 0 0 1
    outer loop
      vertex 18 -2.75 37.5
      vertex 20 10.95 37.5
      vertex 18 2.75 37.5
    endloop
  endfacet
  facet normal 0 0 1
    outer loop
      vertex 20 10.95 37.5
      vertex 18 -2.75 37.5
      vertex 20 -12.55 37.5
    endloop
  endfacet
  facet normal -0 0 1
    outer loop
      vertex 18 -8.25 37.5
      vertex 20 -12.55 37.5
      vertex 18 -2.75 37.5
    endloop
  endfacet
  facet normal 0 0 1
    outer loop
      vertex 17 -11.8 37.5
      vertex 18 -8.25 37.5
      vertex 17 -8.75 37.5
    endloop
  endfacet
  facet normal 0 0 1
    outer loop
      vertex 18 -8.25 37.5
      vertex 17 -11.8 37.5
      vertex 20 -12.55 37.5
    endloop
  endfacet
  facet normal -0 0 1
    outer loop
      vertex -17 -11.8 37.5
      vertex 20 -12.55 37.5
      vertex 17 -11.8 37.5
    endloop
  endfacet
  facet normal 0 0 1
    outer loop
      vertex -17 -11.8 37.5
      vertex -20 -12.55 37.5
      vertex 20 -12.55 37.5
    endloop
  endfacet
  facet normal 0 0 1
    outer loop
      vertex -18 -8.25 37.5
      vertex -20 -12.55 37.5
      vertex -17 -11.8 37.5
    endloop
  endfacet
  facet normal 0 0 1
    outer loop
      vertex -18 -2.75 37.5
      vertex -20 -12.55 37.5
      vertex -18 -8.25 37.5
    endloop
  endfacet
  facet normal 0 0 1
    outer loop
      vertex 18 8.25 37.5
      vertex 17 10.2 37.5
      vertex 17 8.75 37.5
    endloop
  endfacet
  facet normal 0 0 1
    outer loop
      vertex -17 -2.25 -37.5
      vertex -18 -2.75 -37.5
      vertex -17 -3.25 -37.5
    endloop
  endfacet
  facet normal 0 0 1
    outer loop
      vertex -17 -2.25 -37.5
      vertex 17 -2.25 -37.5
      vertex 17 -1.55 -37.5
    endloop
  endfacet
  facet normal 0 0 1
    outer loop
      vertex 17 -2.25 -37.5
      vertex -17 -2.25 -37.5
      vertex 17 -3.25 -37.5
    endloop
  endfacet
  facet normal 0 0 1
    outer loop
      vertex -17 -2.25 -37.5
      vertex 17 -1.55 -37.5
      vertex -17 -1.55 -37.5
    endloop
  endfacet
  facet normal 0 0 1
    outer loop
      vertex 17 -3.25 -37.5
      vertex -17 -2.25 -37.5
      vertex -17 -3.25 -37.5
    endloop
  endfacet
  facet normal 0 0 1
    outer loop
      vertex 17 -3.25 -37.5
      vertex -17 -3.25 -37.5
      vertex 17 -5.55 -37.5
    endloop
  endfacet
  facet normal 0 0 1
    outer loop
      vertex 17 -5.55 -37.5
      vertex -17 -3.25 -37.5
      vertex -17 -5.55 -37.5
    endloop
  endfacet
  facet normal 0 0 1
    outer loop
      vertex 18 -2.75 -37.5
      vertex 17 -2.25 -37.5
      vertex 17 -3.25 -37.5
    endloop
  endfacet
  facet normal -0.447214 0.894427 0
    outer loop
      vertex 18 -2.75 -37.5
      vertex 17 -3.25 37.5
      vertex 18 -2.75 37.5
    endloop
  endfacet
  facet normal -0.447214 0.894427 0
    outer loop
      vertex 17 -3.25 37.5
      vertex 18 -2.75 -37.5
      vertex 17 -3.25 -37.5
    endloop
  endfacet
  facet normal -0.447214 -0.894427 0
    outer loop
      vertex 17 -2.25 -37.5
      vertex 18 -2.75 37.5
      vertex 17 -2.25 37.5
    endloop
  endfacet
  facet normal -0.447214 -0.894427 -0
    outer loop
      vertex 18 -2.75 37.5
      vertex 17 -2.25 -37.5
      vertex 18 -2.75 -37.5
    endloop
  endfacet
  facet normal 0.447214 -0.894427 0
    outer loop
      vertex -18 -2.75 -37.5
      vertex -17 -2.25 37.5
      vertex -18 -2.75 37.5
    endloop
  endfacet
  facet normal 0.447214 -0.894427 0
    outer loop
      vertex -17 -2.25 37.5
      vertex -18 -2.75 -37.5
      vertex -17 -2.25 -37.5
    endloop
  endfacet
  facet normal 0.447214 0.894427 -0
    outer loop
      vertex -17 -3.25 -37.5
      vertex -18 -2.75 37.5
      vertex -17 -3.25 37.5
    endloop
  endfacet
  facet normal 0.447214 0.894427 0
    outer loop
      vertex -18 -2.75 37.5
      vertex -17 -3.25 -37.5
      vertex -18 -2.75 -37.5
    endloop
  endfacet
  facet normal -1 0 0
    outer loop
      vertex -20 -12.55 -40.5
      vertex -20 10.95 37.5
      vertex -20 10.95 -40.5
    endloop
  endfacet
  facet normal -1 -0 0
    outer loop
      vertex -20 10.95 37.5
      vertex -20 -12.55 -40.5
      vertex -20 -12.55 37.5
    endloop
  endfacet
  facet normal 0 1 -0
    outer loop
      vertex 17 -0.0500002 -37.5
      vertex -17 -0.0500002 37.5
      vertex 17 -0.0500002 37.5
    endloop
  endfacet
  facet normal 0 1 0
    outer loop
      vertex -17 -0.0500002 37.5
      vertex 17 -0.0500002 -37.5
      vertex -17 -0.0500002 -37.5
    endloop
  endfacet
  facet normal 1 -0 0
    outer loop
      vertex 20 -12.55 37.5
      vertex 20 10.95 -40.5
      vertex 20 10.95 37.5
    endloop
  endfacet
  facet normal 1 0 0
    outer loop
      vertex 20 10.95 -40.5
      vertex 20 -12.55 37.5
      vertex 20 -12.55 -40.5
    endloop
  endfacet
  facet normal 0 -1 0
    outer loop
      vertex -17 -7.05 -37.5
      vertex 17 -7.05 37.5
      vertex -17 -7.05 37.5
    endloop
  endfacet
  facet normal 0 -1 -0
    outer loop
      vertex 17 -7.05 37.5
      vertex -17 -7.05 -37.5
      vertex 17 -7.05 -37.5
    endloop
  endfacet
  facet normal 0 0 -1
    outer loop
      vertex -20 -12.55 -40.5
      vertex 20 10.95 -40.5
      vertex 20 -12.55 -40.5
    endloop
  endfacet
  facet normal -0 0 -1
    outer loop
      vertex 20 10.95 -40.5
      vertex -20 -12.55 -40.5
      vertex -20 10.95 -40.5
    endloop
  endfacet
  facet normal 1 -0 0
    outer loop
      vertex -17 3.25 37.5
      vertex -17 3.95 -37.5
      vertex -17 3.95 37.5
    endloop
  endfacet
  facet normal 1 0 0
    outer loop
      vertex -17 3.95 -37.5
      vertex -17 3.25 37.5
      vertex -17 3.25 -37.5
    endloop
  endfacet
  facet normal 1 -0 0
    outer loop
      vertex -17 -0.0500002 37.5
      vertex -17 2.25 -37.5
      vertex -17 2.25 37.5
    endloop
  endfacet
  facet normal 1 0 0
    outer loop
      vertex -17 2.25 -37.5
      vertex -17 -0.0500002 37.5
      vertex -17 -0.0500002 -37.5
    endloop
  endfacet
  facet normal -1 0 0
    outer loop
      vertex 17 -0.0500002 -37.5
      vertex 17 2.25 37.5
      vertex 17 2.25 -37.5
    endloop
  endfacet
  facet normal -1 -0 0
    outer loop
      vertex 17 2.25 37.5
      vertex 17 -0.0500002 -37.5
      vertex 17 -0.0500002 37.5
    endloop
  endfacet
  facet normal -1 0 0
    outer loop
      vertex 17 3.25 -37.5
      vertex 17 3.95 37.5
      vertex 17 3.95 -37.5
    endloop
  endfacet
  facet normal -1 -0 0
    outer loop
      vertex 17 3.95 37.5
      vertex 17 3.25 -37.5
      vertex 17 3.25 37.5
    endloop
  endfacet
  facet normal 0 0 1
    outer loop
      vertex -17 3.25 -37.5
      vertex -18 2.75 -37.5
      vertex -17 2.25 -37.5
    endloop
  endfacet
  facet normal 0 0 1
    outer loop
      vertex -17 3.25 -37.5
      vertex 17 3.25 -37.5
      vertex 17 3.95 -37.5
    endloop
  endfacet
  facet normal 0 0 1
    outer loop
      vertex 17 3.25 -37.5
      vertex -17 3.25 -37.5
      vertex 17 2.25 -37.5
    endloop
  endfacet
  facet normal 0 0 1
    outer loop
      vertex -17 3.25 -37.5
      vertex 17 3.95 -37.5
      vertex -17 3.95 -37.5
    endloop
  endfacet
  facet normal 0 0 1
    outer loop
      vertex 17 2.25 -37.5
      vertex -17 3.25 -37.5
      vertex -17 2.25 -37.5
    endloop
  endfacet
  facet normal 0 0 1
    outer loop
      vertex 17 2.25 -37.5
      vertex -17 2.25 -37.5
      vertex 17 -0.0500002 -37.5
    endloop
  endfacet
  facet normal 0 0 1
    outer loop
      vertex 17 -0.0500002 -37.5
      vertex -17 2.25 -37.5
      vertex -17 -0.0500002 -37.5
    endloop
  endfacet
  facet normal 0 0 1
    outer loop
      vertex 18 2.75 -37.5
      vertex 17 3.25 -37.5
      vertex 17 2.25 -37.5
    endloop
  endfacet
  facet normal -0.447214 0.894427 0
    outer loop
      vertex 18 2.75 -37.5
      vertex 17 2.25 37.5
      vertex 18 2.75 37.5
    endloop
  endfacet
  facet normal -0.447214 0.894427 0
    outer loop
      vertex 17 2.25 37.5
      vertex 18 2.75 -37.5
      vertex 17 2.25 -37.5
    endloop
  endfacet
  facet normal -0.447214 -0.894427 0
    outer loop
      vertex 17 3.25 -37.5
      vertex 18 2.75 37.5
      vertex 17 3.25 37.5
    endloop
  endfacet
  facet normal -0.447214 -0.894427 -0
    outer loop
      vertex 18 2.75 37.5
      vertex 17 3.25 -37.5
      vertex 18 2.75 -37.5
    endloop
  endfacet
  facet normal 0.447214 -0.894427 0
    outer loop
      vertex -18 2.75 -37.5
      vertex -17 3.25 37.5
      vertex -18 2.75 37.5
    endloop
  endfacet
  facet normal 0.447214 -0.894427 0
    outer loop
      vertex -17 3.25 37.5
      vertex -18 2.75 -37.5
      vertex -17 3.25 -37.5
    endloop
  endfacet
  facet normal 0.447214 0.894427 -0
    outer loop
      vertex -17 2.25 -37.5
      vertex -18 2.75 37.5
      vertex -17 2.25 37.5
    endloop
  endfacet
  facet normal 0.447214 0.894427 0
    outer loop
      vertex -18 2.75 37.5
      vertex -17 2.25 -37.5
      vertex -18 2.75 -37.5
    endloop
  endfacet
  facet normal 0 1 -0
    outer loop
      vertex 17 5.45 -37.5
      vertex -17 5.45 37.5
      vertex 17 5.45 37.5
    endloop
  endfacet
  facet normal 0 1 0
    outer loop
      vertex -17 5.45 37.5
      vertex 17 5.45 -37.5
      vertex -17 5.45 -37.5
    endloop
  endfacet
  facet normal 0 -1 0
    outer loop
      vertex -17 -1.55 -37.5
      vertex 17 -1.55 37.5
      vertex -17 -1.55 37.5
    endloop
  endfacet
  facet normal 0 -1 -0
    outer loop
      vertex 17 -1.55 37.5
      vertex -17 -1.55 -37.5
      vertex 17 -1.55 -37.5
    endloop
  endfacet
  facet normal 1 -0 0
    outer loop
      vertex -17 -7.75 37.5
      vertex -17 -7.05 -37.5
      vertex -17 -7.05 37.5
    endloop
  endfacet
  facet normal 1 0 0
    outer loop
      vertex -17 -7.05 -37.5
      vertex -17 -7.75 37.5
      vertex -17 -7.75 -37.5
    endloop
  endfacet
  facet normal 1 -0 0
    outer loop
      vertex -17 -11.8 37.5
      vertex -17 -8.75 -37.5
      vertex -17 -8.75 37.5
    endloop
  endfacet
  facet normal 1 0 0
    outer loop
      vertex -17 -8.75 -37.5
      vertex -17 -11.8 37.5
      vertex -17 -11.8 -37.5
    endloop
  endfacet
  facet normal -1 0 0
    outer loop
      vertex 17 -11.8 -37.5
      vertex 17 -8.75 37.5
      vertex 17 -8.75 -37.5
    endloop
  endfacet
  facet normal -1 -0 0
    outer loop
      vertex 17 -8.75 37.5
      vertex 17 -11.8 -37.5
      vertex 17 -11.8 37.5
    endloop
  endfacet
  facet normal -1 0 0
    outer loop
      vertex 17 -7.75 -37.5
      vertex 17 -7.05 37.5
      vertex 17 -7.05 -37.5
    endloop
  endfacet
  facet normal -1 -0 0
    outer loop
      vertex 17 -7.05 37.5
      vertex 17 -7.75 -37.5
      vertex 17 -7.75 37.5
    endloop
  endfacet
  facet normal 0 1 -0
    outer loop
      vertex 17 -11.8 -37.5
      vertex -17 -11.8 37.5
      vertex 17 -11.8 37.5
    endloop
  endfacet
  facet normal 0 1 0
    outer loop
      vertex -17 -11.8 37.5
      vertex 17 -11.8 -37.5
      vertex -17 -11.8 -37.5
    endloop
  endfacet
  facet normal 0 0 1
    outer loop
      vertex -17 -7.75 -37.5
      vertex -18 -8.25 -37.5
      vertex -17 -8.75 -37.5
    endloop
  endfacet
  facet normal 0 0 1
    outer loop
      vertex -17 -7.75 -37.5
      vertex 17 -7.75 -37.5
      vertex 17 -7.05 -37.5
    endloop
  endfacet
  facet normal 0 0 1
    outer loop
      vertex 17 -7.75 -37.5
      vertex -17 -7.75 -37.5
      vertex 17 -8.75 -37.5
    endloop
  endfacet
  facet normal 0 0 1
    outer loop
      vertex -17 -7.75 -37.5
      vertex 17 -7.05 -37.5
      vertex -17 -7.05 -37.5
    endloop
  endfacet
  facet normal 0 0 1
    outer loop
      vertex 17 -8.75 -37.5
      vertex -17 -7.75 -37.5
      vertex -17 -8.75 -37.5
    endloop
  endfacet
  facet normal 0 0 1
    outer loop
      vertex 17 -8.75 -37.5
      vertex -17 -8.75 -37.5
      vertex 17 -11.8 -37.5
    endloop
  endfacet
  facet normal 0 0 1
    outer loop
      vertex 17 -11.8 -37.5
      vertex -17 -8.75 -37.5
      vertex -17 -11.8 -37.5
    endloop
  endfacet
  facet normal 0 0 1
    outer loop
      vertex 18 -8.25 -37.5
      vertex 17 -7.75 -37.5
      vertex 17 -8.75 -37.5
    endloop
  endfacet
  facet normal -0.447214 0.894427 0
    outer loop
      vertex 18 -8.25 -37.5
      vertex 17 -8.75 37.5
      vertex 18 -8.25 37.5
    endloop
  endfacet
  facet normal -0.447214 0.894427 0
    outer loop
      vertex 17 -8.75 37.5
      vertex 18 -8.25 -37.5
      vertex 17 -8.75 -37.5
    endloop
  endfacet
  facet normal -0.447214 -0.894427 0
    outer loop
      vertex 17 -7.75 -37.5
      vertex 18 -8.25 37.5
      vertex 17 -7.75 37.5
    endloop
  endfacet
  facet normal -0.447214 -0.894427 -0
    outer loop
      vertex 18 -8.25 37.5
      vertex 17 -7.75 -37.5
      vertex 18 -8.25 -37.5
    endloop
  endfacet
  facet normal 0.447214 -0.894427 0
    outer loop
      vertex -18 -8.25 -37.5
      vertex -17 -7.75 37.5
      vertex -18 -8.25 37.5
    endloop
  endfacet
  facet normal 0.447214 -0.894427 0
    outer loop
      vertex -17 -7.75 37.5
      vertex -18 -8.25 -37.5
      vertex -17 -7.75 -37.5
    endloop
  endfacet
  facet normal 0.447214 0.894427 -0
    outer loop
      vertex -17 -8.75 -37.5
      vertex -18 -8.25 37.5
      vertex -17 -8.75 37.5
    endloop
  endfacet
  facet normal 0.447214 0.894427 0
    outer loop
      vertex -18 -8.25 37.5
      vertex -17 -8.75 -37.5
      vertex -18 -8.25 -37.5
    endloop
  endfacet
  facet normal 0 1 -0
    outer loop
      vertex 17 -5.55 -37.5
      vertex -17 -5.55 37.5
      vertex 17 -5.55 37.5
    endloop
  endfacet
  facet normal 0 1 0
    outer loop
      vertex -17 -5.55 37.5
      vertex 17 -5.55 -37.5
      vertex -17 -5.55 -37.5
    endloop
  endfacet
  facet normal 0 -1 0
    outer loop
      vertex -20 -12.55 -40.5
      vertex 20 -12.55 37.5
      vertex -20 -12.55 37.5
    endloop
  endfacet
  facet normal 0 -1 -0
    outer loop
      vertex 20 -12.55 37.5
      vertex -20 -12.55 -40.5
      vertex 20 -12.55 -40.5
    endloop
  endfacet
  facet normal 1 -0 0
    outer loop
      vertex -17 8.75 37.5
      vertex -17 10.2 -37.5
      vertex -17 10.2 37.5
    endloop
  endfacet
  facet normal 1 0 0
    outer loop
      vertex -17 10.2 -37.5
      vertex -17 8.75 37.5
      vertex -17 8.75 -37.5
    endloop
  endfacet
  facet normal 1 -0 0
    outer loop
      vertex -17 5.45 37.5
      vertex -17 7.75 -37.5
      vertex -17 7.75 37.5
    endloop
  endfacet
  facet normal 1 0 0
    outer loop
      vertex -17 7.75 -37.5
      vertex -17 5.45 37.5
      vertex -17 5.45 -37.5
    endloop
  endfacet
  facet normal 0 -1 0
    outer loop
      vertex -17 10.2 -37.5
      vertex 17 10.2 37.5
      vertex -17 10.2 37.5
    endloop
  endfacet
  facet normal 0 -1 -0
    outer loop
      vertex 17 10.2 37.5
      vertex -17 10.2 -37.5
      vertex 17 10.2 -37.5
    endloop
  endfacet
  facet normal -1 0 0
    outer loop
      vertex 17 5.45 -37.5
      vertex 17 7.75 37.5
      vertex 17 7.75 -37.5
    endloop
  endfacet
  facet normal -1 -0 0
    outer loop
      vertex 17 7.75 37.5
      vertex 17 5.45 -37.5
      vertex 17 5.45 37.5
    endloop
  endfacet
  facet normal -1 0 0
    outer loop
      vertex 17 8.75 -37.5
      vertex 17 10.2 37.5
      vertex 17 10.2 -37.5
    endloop
  endfacet
  facet normal -1 -0 0
    outer loop
      vertex 17 10.2 37.5
      vertex 17 8.75 -37.5
      vertex 17 8.75 37.5
    endloop
  endfacet
  facet normal 0 0 1
    outer loop
      vertex -17 8.75 -37.5
      vertex -18 8.25 -37.5
      vertex -17 7.75 -37.5
    endloop
  endfacet
  facet normal 0 0 1
    outer loop
      vertex -17 8.75 -37.5
      vertex 17 8.75 -37.5
      vertex 17 10.2 -37.5
    endloop
  endfacet
  facet normal 0 0 1
    outer loop
      vertex 17 8.75 -37.5
      vertex -17 8.75 -37.5
      vertex 17 7.75 -37.5
    endloop
  endfacet
  facet normal 0 0 1
    outer loop
      vertex -17 8.75 -37.5
      vertex 17 10.2 -37.5
      vertex -17 10.2 -37.5
    endloop
  endfacet
  facet normal 0 0 1
    outer loop
      vertex 17 7.75 -37.5
      vertex -17 8.75 -37.5
      vertex -17 7.75 -37.5
    endloop
  endfacet
  facet normal 0 0 1
    outer loop
      vertex 17 7.75 -37.5
      vertex -17 7.75 -37.5
      vertex 17 5.45 -37.5
    endloop
  endfacet
  facet normal 0 0 1
    outer loop
      vertex 17 5.45 -37.5
      vertex -17 7.75 -37.5
      vertex -17 5.45 -37.5
    endloop
  endfacet
  facet normal 0 0 1
    outer loop
      vertex 18 8.25 -37.5
      vertex 17 8.75 -37.5
      vertex 17 7.75 -37.5
    endloop
  endfacet
  facet normal -0.447214 0.894427 0
    outer loop
      vertex 18 8.25 -37.5
      vertex 17 7.75 37.5
      vertex 18 8.25 37.5
    endloop
  endfacet
  facet normal -0.447214 0.894427 0
    outer loop
      vertex 17 7.75 37.5
      vertex 18 8.25 -37.5
      vertex 17 7.75 -37.5
    endloop
  endfacet
  facet normal -0.447214 -0.894427 0
    outer loop
      vertex 17 8.75 -37.5
      vertex 18 8.25 37.5
      vertex 17 8.75 37.5
    endloop
  endfacet
  facet normal -0.447214 -0.894427 -0
    outer loop
      vertex 18 8.25 37.5
      vertex 17 8.75 -37.5
      vertex 18 8.25 -37.5
    endloop
  endfacet
  facet normal 0.447214 -0.894427 0
    outer loop
      vertex -18 8.25 -37.5
      vertex -17 8.75 37.5
      vertex -18 8.25 37.5
    endloop
  endfacet
  facet normal 0.447214 -0.894427 0
    outer loop
      vertex -17 8.75 37.5
      vertex -18 8.25 -37.5
      vertex -17 8.75 -37.5
    endloop
  endfacet
  facet normal 0.447214 0.894427 -0
    outer loop
      vertex -17 7.75 -37.5
      vertex -18 8.25 37.5
      vertex -17 7.75 37.5
    endloop
  endfacet
  facet normal 0.447214 0.894427 0
    outer loop
      vertex -18 8.25 37.5
      vertex -17 7.75 -37.5
      vertex -18 8.25 -37.5
    endloop
  endfacet
  facet normal 0 1 -0
    outer loop
      vertex 20 10.95 -40.5
      vertex -20 10.95 37.5
      vertex 20 10.95 37.5
    endloop
  endfacet
  facet normal 0 1 0
    outer loop
      vertex -20 10.95 37.5
      vertex 20 10.95 -40.5
      vertex -20 10.95 -40.5
    endloop
  endfacet
  facet normal 0 -1 0
    outer loop
      vertex -17 3.95 -37.5
      vertex 17 3.95 37.5
      vertex -17 3.95 37.5
    endloop
  endfacet
  facet normal 0 -1 -0
    outer loop
      vertex 17 3.95 37.5
      vertex -17 3.95 -37.5
      vertex 17 3.95 -37.5
    endloop
  endfacet
endsolid OpenSCAD_Model
